<?xml version="1.0" encoding="UTF-8" standalone="no" ?>
<!DOCTYPE svg PUBLIC "-//W3C//DTD SVG 1.1//EN" "http://www.w3.org/Graphics/SVG/1.1/DTD/svg11.dtd">
<svg xmlns="http://www.w3.org/2000/svg" xmlns:xlink="http://www.w3.org/1999/xlink" version="1.1" width="400" height="400" viewBox="0 0 400 400" xml:space="preserve">
<desc>Created with Fabric.js 3.6.2</desc>
<defs>
</defs>
<g transform="matrix(10 0 0 10 200 200)"  >
<path style="stroke: none; stroke-width: 1; stroke-dasharray: none; stroke-linecap: butt; stroke-dashoffset: 0; stroke-linejoin: miter; stroke-miterlimit: 4; fill: rgb(101,99,255); fill-rule: nonzero; opacity: 1;"  transform=" translate(-12, -12)" d="M 13 3 a 7 7 0 0 0 0 14 A 5 5 0 0 0 13 7 a 3 3 0 0 0 0 6 a 1 1 0 0 0 0 -2 a 1 1 0 0 1 0 -2 a 3 3 0 0 1 0 6 A 5 5 0 0 1 13 5 a 7 7 0 0 1 0 14 a 9 9 0 0 1 -9 -9 a 1 1 0 0 0 -2 0 A 11 11 0 0 0 13 21 A 9 9 0 0 0 13 3 Z" stroke-linecap="round" />
</g>
</svg>